<svg id="Calque_1" data-name="Calque 1" xmlns="http://www.w3.org/2000/svg" viewBox="0 0 70 70"><defs><style>.cls-1{fill:#131f29;}</style></defs><path class="cls-1" d="M25.19,57.06h1.92l.32-2.19a1,1,0,0,1,.79-.85,9.75,9.75,0,0,0,3.21-1.33,1,1,0,0,1,1.16,0l1.77,1.33,1.36-1.37-1.33-1.77a1,1,0,0,1,0-1.16,9.52,9.52,0,0,0,1.32-3.21,1,1,0,0,1,.85-.79l2.19-.31V43.52l-2.19-.31a1,1,0,0,1-.85-.8,9.52,9.52,0,0,0-1.32-3.21,1,1,0,0,1,0-1.16l1.33-1.77-1.36-1.36-1.77,1.33a1,1,0,0,1-1.16,0A9.34,9.34,0,0,0,28.22,35a1,1,0,0,1-.8-.85l-.31-2.19H25.19l-.32,2.18a1,1,0,0,1-.79.86,9.44,9.44,0,0,0-3.21,1.32,1,1,0,0,1-1.16,0l-1.77-1.32-1.36,1.36L17.9,38a1,1,0,0,1,0,1.16,9.51,9.51,0,0,0-1.33,3.22,1,1,0,0,1-.85.79l-2.19.31v1.93l2.19.31a1,1,0,0,1,.85.79,9.54,9.54,0,0,0,1.33,3.21,1,1,0,0,1,0,1.17l-1.32,1.76,1.36,1.37,1.76-1.33a1,1,0,0,1,1.17,0A9.32,9.32,0,0,0,24.08,54a1,1,0,0,1,.79.86l.32,2.19ZM28,59H24.31a1,1,0,0,1-1-.87L23,55.78a11.71,11.71,0,0,1-2.56-1.06l-1.92,1.43a1,1,0,0,1-1.32-.09l-2.6-2.6a1,1,0,0,1-.09-1.32l1.44-1.91a11.35,11.35,0,0,1-1.07-2.57l-2.37-.34a1,1,0,0,1-.87-1V42.65a1,1,0,0,1,.87-1l2.37-.34a11.79,11.79,0,0,1,1.06-2.57l-1.43-1.91a1,1,0,0,1,.09-1.33l2.6-2.59a1,1,0,0,1,1.32-.1l1.92,1.44A11.06,11.06,0,0,1,23,33.19l.34-2.37a1,1,0,0,1,1-.87H28a1,1,0,0,1,1,.87l.33,2.37a11.32,11.32,0,0,1,2.57,1.06l1.91-1.44a1,1,0,0,1,1.33.1l2.59,2.59a1,1,0,0,1,.1,1.33l-1.44,1.91a11.32,11.32,0,0,1,1.06,2.57l2.37.34a1,1,0,0,1,.87,1v3.67a1,1,0,0,1-.87,1l-2.37.34a11.24,11.24,0,0,1-1.06,2.56l1.44,1.92a1,1,0,0,1-.1,1.32l-2.59,2.6a1,1,0,0,1-1.33.09l-1.91-1.43a11.92,11.92,0,0,1-2.56,1.06L29,58.15A1,1,0,0,1,28,59Z"/><path class="cls-1" d="M26.21,40.54a4,4,0,1,0,4,4,4,4,0,0,0-4-4Zm0,10a6,6,0,1,1,6-6,6,6,0,0,1-6,6Z"/><path class="cls-1" d="M44.42,40.22a1,1,0,0,1-.8-.38l-1.09-1.39a9.61,9.61,0,0,1-2.68.25,1,1,0,0,1,.1-2,7.45,7.45,0,0,0,2.65-.35,1,1,0,0,1,1.11.34l1,1.23,1-.58-.59-1.45a1,1,0,0,1,.27-1.13A8.54,8.54,0,0,0,47,32.65a1,1,0,0,1,1-.58l1.55.19.3-1.12-1.44-.62a1,1,0,0,1-.61-1,7.45,7.45,0,0,0-.35-2.65,1,1,0,0,1,.34-1.11l1.23-1-.58-1L47,24.4a1,1,0,0,1-1.13-.27,7.17,7.17,0,0,0-2.12-1.62,1,1,0,0,1-.54-1l.19-1.55-1.12-.3-.62,1.44a1,1,0,0,1-1,.61A7.17,7.17,0,0,0,38,22a1,1,0,0,1-1.11-.34l-1-1.23L35,21l.58,1.45a1,1,0,0,1-.26,1.13,7.55,7.55,0,0,0-1.63,2.12,1,1,0,0,1-1,.54l-1.55-.19-.3,1.12,1.44.62a1,1,0,0,1,.61,1,7.23,7.23,0,0,0,.35,2.65,1,1,0,0,1-.65,1.28,1,1,0,0,1-1.28-.66,9.21,9.21,0,0,1-.45-2.66l-1.63-.69a1,1,0,0,1-.58-1.2l.76-2.81a1,1,0,0,1,1.1-.75l1.75.22a9.32,9.32,0,0,1,1.21-1.58L32.74,21a1,1,0,0,1,.44-1.26l2.52-1.46a1,1,0,0,1,1.31.25L38.1,19.9a9.93,9.93,0,0,1,2-.26L40.76,18A1,1,0,0,1,42,17.44l2.82.76a1,1,0,0,1,.74,1.1l-.21,1.75a9.32,9.32,0,0,1,1.58,1.21l1.63-.66a1,1,0,0,1,1.26.44l1.46,2.52A1,1,0,0,1,51,25.87L49.59,27a9.23,9.23,0,0,1,.25,2l1.63.7a1,1,0,0,1,.58,1.19l-.76,2.82a1,1,0,0,1-1.1.74l-1.76-.21a10.93,10.93,0,0,1-1.2,1.57l.66,1.65a1,1,0,0,1-.44,1.25l-2.53,1.46a1,1,0,0,1-.5.13Z"/><path class="cls-1" d="M40.31,26.8A2.37,2.37,0,0,0,38,28.56a2.39,2.39,0,0,0,1.68,2.91,2.4,2.4,0,0,0,2.91-1.68,2.39,2.39,0,0,0-1.68-2.91,2.15,2.15,0,0,0-.62-.08Zm0,6.78a4.4,4.4,0,0,1-3.82-2.2,4.41,4.41,0,0,1,3.81-6.61,4.48,4.48,0,0,1,1.15.15,4.41,4.41,0,0,1-1.14,8.66Z"/><path class="cls-1" d="M21.11,12.36a3.12,3.12,0,0,0-2.86,3.33A3.12,3.12,0,0,0,21.11,19,3.12,3.12,0,0,0,24,15.69a3.12,3.12,0,0,0-2.87-3.33Zm0,8.68a5.15,5.15,0,0,1-4.89-5.35,5.15,5.15,0,0,1,4.89-5.36A5.16,5.16,0,0,1,26,15.69,5.15,5.15,0,0,1,21.11,21Z"/><path class="cls-1" d="M27.63,24.56a1,1,0,0,1-.59-.19,6.37,6.37,0,0,0-2-.89,1,1,0,1,1,.55-1.95,8.37,8.37,0,0,1,2.61,1.19,1,1,0,0,1-.59,1.84Z"/><path class="cls-1" d="M20.09,31.26H14a2.41,2.41,0,0,1-2.4-2.4c0-2.41.52-5.73,5.06-7a1,1,0,0,1,.53,1.89c-3,.84-3.63,2.64-3.63,5.08a.45.45,0,0,0,.44.47h6.14a1,1,0,0,1,0,2Z"/><path class="cls-1" d="M49.1,42.85a3,3,0,1,0,2.52,2.94,2.76,2.76,0,0,0-2.52-2.94Zm0,7.9a5,5,0,1,1,4.55-5,4.77,4.77,0,0,1-4.55,5Z"/><path class="cls-1" d="M55.69,60H42.52a2.32,2.32,0,0,1-2.36-2.27c0-2.22.51-5.28,4.83-6.45a1,1,0,0,1,1.25.68,1,1,0,0,1-.7,1.21c-2.78.75-3.35,2.36-3.35,4.54a.33.33,0,0,0,.33.33H55.69a.33.33,0,0,0,.33-.33c0-2.19-.58-3.79-3.35-4.54A1,1,0,0,1,52,52a1,1,0,0,1,1.25-.68C57.54,52.45,58,55.51,58,57.71A2.32,2.32,0,0,1,55.69,60Z"/></svg>